Two CIA agents, Tuck and Frank who are also best friends, have been benched because someone's after them. Tuck is divorced with a son whom he's not close to and Frank is a ladies man. Tuck decides to try and find someone so he places his profile on a dating website. Lauren, a woman also looking for a guy sees tuck's profile and goes with him. She later bumps into Frank and he hits on her and she goes out with him. she's intrigued by both of them. When they learn that they're dating the same girl, they agree to let her choose. But both can't help but use their skills to keep tabs on her and each other. And also sabotage each others dates with her.
 
Cast: Angela Bassett, Reese Witherspoon, Til Schweiger, Aleks Paunovic, Lossen Chambers
 
http://www.imdb.com/title/tt1596350/
 
http://www.shotpix.com/images/47336218686000880681.jpg

Complete name : This Means War 2012 DVDRiP.XViD.AC3-ART3MiS.avi
 Format : AVI
 Format/Info : Audio Video Interleave
 File size : 697 MiB
 Duration : 1h 37mn
 Overall bit rate : 999 Kbps
 Writing application : Nandub v1.0rc2
 Writing library : VirtualDub build 32842/release
 
Video
 ID : 0
 Format : MPEG-4 Visual
 Format profile : Advanced Simple@L5
 Format settings, BVOP : 2
 Format settings, QPel : No
 Format settings, GMC : No warppoints
 Format settings, Matrix : Default (H.263)
 Codec ID : XVID
 Codec ID/Hint : XviD
 Duration : 1h 37mn
 Bit rate : 861 Kbps
 Width : 640 pixels
 Height : 272 pixels
 Display aspect ratio : 2.35:1
 Frame rate : 23.976 fps
 Color space : YUV
 Chroma subsampling : 4:2:0
 Bit depth : 8 bits
 Scan type : Progressive
 Compression mode : Lossy
 Bits/(Pixel*Frame) : 0.206
 Stream size : 601 MiB (86%)
 Writing library : XviD 61
 
Audio
 ID : 1
 Format : AC-3
 Format/Info : Audio Coding 3
 Mode extension : CM (complete main)
 Format settings, Endianness : Big
 Codec ID : 2000
 Duration : 1h 37mn
 Bit rate mode : Constant
 Bit rate : 128 Kbps
 Channel(s) : 2 channels
 Channel positions : Front: L R
 Sampling rate : 48.0 KHz
 Bit depth : 16 bits
 Compression mode : Lossy
 Stream size : 89.3 MiB (13%)
 Alignment : Aligned on interleaves
 Interleave, duration : 42 ms (1.00 video frame)
 Interleave, preload duration : 512 ms